<svg width="345" height="80" viewBox="0 0 345 80" fill="none" xmlns="http://www.w3.org/2000/svg">
<path fill-rule="evenodd" clip-rule="evenodd" d="M24.6859 49.8V72H8.18591V27.7C8.18591 23.5 10.9192 21.3666 16.3859 21.3H39.0859V34H24.6859V37.1H39.0859V49.8H24.6859ZM43.6743 45.1C43.5831 45.566 43.5375 46.066 43.5375 46.6V65.7C43.5375 69.9 46.2708 72 51.7375 72H80.5375V27.7C80.5375 25.1739 79.5794 23.3956 77.6632 22.3651C76.3428 21.655 74.5676 21.3 72.3375 21.3H51.7375C49.8669 21.3 48.3164 21.5497 47.0859 22.0493C44.7203 23.0097 43.5375 24.8932 43.5375 27.7V37.1H60.0375V34H64.0375V40.3H51.7375C49.8669 40.3228 48.3164 40.5837 47.0859 41.0826C46.476 41.3299 45.9447 41.6357 45.4921 42C44.5338 42.7712 43.9279 43.8045 43.6743 45.1ZM47.0859 13.7379V13.3H16.3371L16.2884 13.3006C12.7469 13.3438 8.65345 14.0369 5.31375 16.6434C1.5896 19.5501 0.185913 23.7153 0.185913 27.7V80H32.6859V57.8H35.5375V65.7C35.5375 69.6806 36.9414 73.8707 40.7135 76.7688C44.0862 79.3601 48.2041 80 51.7375 80H88.5375V79.6136C90.0445 79.8987 91.5427 80 92.9484 80H113.548C116.835 80 120.626 79.4465 123.854 77.2846C127.082 79.4465 130.873 80 134.159 80H154.759C156.165 80 157.663 79.8987 159.17 79.6136V80H195.97C199.256 80 203.048 79.4465 206.276 77.2846C209.503 79.4465 213.295 80 216.581 80H237.181C240.467 80 244.259 79.4465 247.487 77.2846C250.714 79.4465 254.506 80 257.792 80H278.392C279.798 80 281.296 79.8987 282.803 79.6136V80H344.191L322.631 46.6086L344.223 13.3H282.803V13.6904C281.297 13.4027 279.799 13.3 278.392 13.3H257.792C254.503 13.3 250.712 13.862 247.487 16.0369C244.261 13.862 240.471 13.3 237.181 13.3H216.581C213.292 13.3 209.501 13.862 206.276 16.0369C203.05 13.862 199.26 13.3 195.97 13.3H191.67V0.599976H159.17V13.6904C157.664 13.4027 156.166 13.3 154.759 13.3H134.159C130.87 13.3 127.079 13.862 123.854 16.0369C120.629 13.862 116.838 13.3 113.548 13.3H92.9484C89.6588 13.3 85.8683 13.862 82.643 16.0369C79.4176 13.862 75.6271 13.3 72.3375 13.3H51.7375C50.2561 13.3 48.6731 13.414 47.0859 13.7379ZM87.6227 22.3651C85.7065 23.3956 84.7484 25.1739 84.7484 27.7V65.7C84.7484 68.555 86.0114 70.4396 88.5375 71.3539C89.7275 71.7846 91.1978 72 92.9484 72H113.548C115.771 72 117.542 71.6528 118.861 70.9586C120.786 69.9453 121.748 68.1924 121.748 65.7V47.4H105.248V59.4H101.248V34H105.248V42.7H121.748V27.7C121.748 25.1739 120.79 23.3956 118.874 22.3651C117.554 21.655 115.779 21.3 113.548 21.3H92.9484C90.7183 21.3 88.9431 21.655 87.6227 22.3651ZM125.959 65.7C125.959 68.1924 126.922 69.9453 128.847 70.9586C130.166 71.6528 131.937 72 134.159 72H154.759C156.51 72 157.98 71.7846 159.17 71.3539C161.696 70.4396 162.959 68.555 162.959 65.7V56.2H146.459V59.4H142.459V53H162.959V27.7C162.959 24.7996 161.696 22.8851 159.17 21.9563C157.98 21.5187 156.51 21.3 154.759 21.3H134.159C131.929 21.3 130.154 21.655 128.834 22.3651C126.917 23.3956 125.959 25.1739 125.959 27.7V65.7ZM167.17 72H195.97C198.193 72 199.964 71.6528 201.283 70.9586C203.208 69.9453 204.17 68.1924 204.17 65.7V27.7C204.17 25.1739 203.212 23.3956 201.296 22.3651C199.976 21.655 198.2 21.3 195.97 21.3H183.67V8.59998H167.17V72ZM211.256 22.3651C209.339 23.3956 208.381 25.1739 208.381 27.7V65.7C208.381 68.1924 209.344 69.9453 211.269 70.9586C212.588 71.6528 214.359 72 216.581 72H237.181C239.404 72 241.175 71.6528 242.494 70.9586C244.419 69.9453 245.381 68.1924 245.381 65.7V27.7C245.381 25.1739 244.423 23.3956 242.507 22.3651C241.187 21.655 239.411 21.3 237.181 21.3H216.581C214.351 21.3 212.576 21.655 211.256 22.3651ZM252.466 22.3651C250.55 23.3956 249.592 25.1739 249.592 27.7V65.7C249.592 68.1924 250.555 69.9453 252.48 70.9586C253.799 71.6528 255.57 72 257.792 72H278.392C280.143 72 281.613 71.7846 282.803 71.3539C285.329 70.4396 286.592 68.555 286.592 65.7V27.7C286.592 24.7996 285.329 22.8851 282.803 21.9563C281.613 21.5187 280.143 21.3 278.392 21.3H257.792C255.562 21.3 253.787 21.655 252.466 22.3651ZM290.803 21.3V72H306.703V64.2L312.103 72H329.503L313.103 46.6L329.503 21.3H312.103L306.703 29.1V21.3H290.803ZM60.0375 59.4H64.0375V53H60.0375V59.4ZM142.459 40.3H146.459V34H142.459V40.3ZM183.67 34H187.67V59.4H183.67V34ZM224.881 34H228.881V59.4H224.881V34ZM266.092 34H270.092V59.4H266.092V34Z" fill="black"/>
</svg>
