<svg width="34" height="28" viewBox="0 0 34 28" fill="none" xmlns="http://www.w3.org/2000/svg">
<path d="M34 11.0083C34.0013 11.3968 33.7729 11.7415 33.4501 11.9029C31.1391 13.0584 29.9331 16.0694 26.2029 18.0689C26.3105 15.916 26.1332 13.9702 25.9353 12.5809C25.8802 12.199 25.7527 11.8345 25.5628 11.5071C26.0928 11.427 26.6517 11.3488 27.2774 11.2567C23.0657 10.0939 20.6441 8.02326 17 8.02326C13.3621 8.02326 10.9296 10.0938 6.72257 11.2567C7.34071 11.3477 7.89436 11.4251 8.43725 11.5071C8.24732 11.8345 8.11982 12.1984 8.0647 12.5809C7.86613 13.9715 7.68949 15.9173 7.79508 18.0676C4.06888 16.068 2.85957 13.0571 0.549871 11.9029C0.219819 11.7382 -0.00132223 11.3968 5.95008e-06 11.0083C0.00199822 10.4485 0.460883 10.0155 0.995475 10.0155C3.5635 10.0155 10.4275 0.0541992 14.0116 0.0541992C15.2003 0.0541992 16.2695 0.577501 17 1.40562C17.7305 0.577501 18.7997 0.0541992 19.9884 0.0541992C23.5187 0.0541992 30.5527 10.0155 33.0045 10.0155C33.5391 10.0155 33.998 10.4485 34 11.0083Z" fill="white"/>
<path d="M23.9629 12.8632C23.9237 12.5883 23.7637 12.3319 23.5292 12.1752C21.4993 10.8244 19.6826 10.7797 17.9961 11.4029V20.973C17.9961 21.5229 17.5498 21.9692 16.9999 21.9692C16.4501 21.9692 16.0038 21.5229 16.0038 20.973V11.4029C14.3172 10.7797 12.5005 10.8244 10.4706 12.1752C10.2375 12.3306 10.0761 12.5889 10.037 12.8632C9.10656 19.3726 10.2661 27.946 16.9999 27.946C23.7351 27.946 24.8886 19.342 23.9629 12.8632Z" fill="white"/>
</svg>
