<svg width="49" height="49" fill="none" xmlns="http://www.w3.org/2000/svg"><path fill="#0077B5" d="M0 10.215L38.124 0 48.34 38.124 10.215 48.339z"/><path d="M18.93 18.048V34.39h-5.438V18.048h5.439zM19.289 12.993c0 1.569-1.181 2.824-3.078 2.824h-.035c-1.826 0-3.006-1.255-3.006-2.824 0-1.603 1.216-2.823 3.077-2.823 1.86 0 3.006 1.22 3.042 2.823zM38.545 25.02v9.37h-5.439v-8.743c0-2.196-.787-3.695-2.756-3.695-1.502 0-2.397 1.01-2.79 1.986-.144.35-.18.837-.18 1.325v9.127h-5.44s.073-14.808 0-16.342h5.44v2.315c.722-1.113 2.015-2.699 4.903-2.699 3.579 0 6.262 2.336 6.262 7.356z" fill="#fff"/></svg>