<svg width="67" height="67" fill="none" xmlns="http://www.w3.org/2000/svg"><path fill="#6FD454" d="M9 19.216L47.124 9.001 57.34 47.125 19.215 57.34z"/><path d="M20.875 26.273c.24-.167.492-.23.766-.08.608.327 1.217.654 1.818 1.003.693.403 1.369.838 2.06 1.251.18.113.388.192.58.29.179.095.356.196.529.294.373.235.56.579.45 1.001-.154.604-.363 1.203-.552 1.801-.157.501-.335.997-.48 1.5-.113.392-.001.738.358.963.552.343 1.101.688 1.672 1.005 2.115 1.175 4.373 1.907 6.792 2.08.933.07 1.872.084 2.806.076.881-.007 1.103-.22 1.287-1.093.172-.809.322-1.617.49-2.429.039-.195.11-.39.18-.577.14-.386.422-.582.825-.605.11-.008.226-.024.334-.013 1.17.114 2.335-.002 3.5-.004.623 0 1.246.024 1.865.034.333.003.556.16.71.465.432.856.764 1.75.687 2.728-.034.407-.173.826-.343 1.199-.476 1.021-1.17 1.882-1.997 2.643-.752.691-1.654 1.119-2.63 1.337-1.881.43-3.78.775-5.723.756-1.764-.019-3.503-.268-5.216-.678-2.172-.525-4.264-1.257-6.232-2.33-1.28-.694-2.42-1.58-3.528-2.516-.67-.563-1.332-1.122-1.883-1.811-.625-.779-1.009-1.655-1.203-2.623-.176-.873-.273-1.75-.17-2.645.085-.696.335-1.316.833-1.815.4-.398.82-.774 1.232-1.158a.217.217 0 00.183-.05z" fill="#fff"/></svg>