<svg width="49" height="49" fill="none" xmlns="http://www.w3.org/2000/svg"><path fill="#fff" d="M10.215 0l38.124 10.215L38.124 48.34 0 38.124z"/><path fill-rule="evenodd" clip-rule="evenodd" d="M37.035 31.054a6.867 6.867 0 00-.736-3.1c.185-.835.282-1.698.282-2.586 0-6.647-5.466-12.038-12.21-12.038-.71 0-1.408.061-2.088.177a7.114 7.114 0 00-3.766-1.072c-3.912 0-7.082 3.125-7.082 6.983 0 1.288.355 2.493.972 3.532-.16.78-.246 1.59-.246 2.418 0 6.65 5.466 12.04 12.21 12.04.764 0 1.51-.07 2.236-.202.998.528 2.136.83 3.348.83 3.91 0 7.08-3.127 7.08-6.982zm-5.546-2.617c0 .991-.29 1.895-.855 2.685s-1.399 1.413-2.483 1.855c-1.07.44-2.352.664-3.814.664-1.753 0-3.224-.305-4.372-.906a5.667 5.667 0 01-2.01-1.76c-.519-.735-.78-1.467-.78-2.175 0-.439.17-.822.508-1.135.334-.311.763-.467 1.275-.467.418 0 .781.123 1.075.368.281.236.522.585.716 1.031.217.49.452.902.7 1.224.24.315.585.577 1.025.784.442.204 1.04.311 1.773.311 1.01 0 1.838-.213 2.46-.632.61-.408.904-.9.904-1.503 0-.473-.155-.847-.471-1.141-.334-.306-.772-.543-1.303-.71a26.337 26.337 0 00-2.24-.547c-1.269-.267-2.345-.583-3.2-.943-.876-.367-1.582-.876-2.098-1.512-.524-.649-.79-1.46-.79-2.415 0-.908.278-1.728.829-2.435.545-.701 1.342-1.25 2.37-1.623 1.013-.37 2.218-.556 3.583-.556 1.09 0 2.048.124 2.849.37.805.247 1.483.58 2.015.99.538.416.938.857 1.188 1.317.253.464.382.925.382 1.372 0 .43-.168.822-.5 1.162a1.684 1.684 0 01-1.255.518c-.451 0-.806-.11-1.05-.324-.23-.2-.467-.512-.73-.957-.304-.57-.673-1.02-1.096-1.337-.411-.308-1.096-.463-2.04-.463-.873 0-1.586.172-2.114.515-.51.328-.757.707-.757 1.155 0 .273.08.503.245.699.171.21.417.391.727.546.32.158.652.286.983.375.338.093.907.232 1.689.41a28.35 28.35 0 012.698.697c.815.255 1.516.57 2.091.94a4.139 4.139 0 011.376 1.431c.33.58.496 1.292.496 2.122z" fill="#00AEF3"/></svg>