<svg width="280" height="68" viewBox="0 0 280 68" fill="none" xmlns="http://www.w3.org/2000/svg">
<path fill-rule="evenodd" clip-rule="evenodd" d="M46.1273 58.3852C44.9313 58.8167 43.4495 59.0216 41.682 59.0001H21.082C15.6153 59.0001 12.882 56.9001 12.882 52.7001V24.1H8.78198V11.5H12.882V8.30005H29.382V11.5H49.882V24.1H29.382V46.4001H33.482V27.3001H49.882V52.7001C49.882 55.5872 48.6304 57.4823 46.1273 58.3852ZM54.1273 59.0001H70.6273V24.1H54.1273V59.0001ZM70.6273 21V8.30005H54.1273V21H70.6273ZM46.1273 3.50005H37.382V0.300049H4.88198V3.50005H0.781982V32.1H4.88198V52.7001C4.88198 56.6807 6.28589 60.8708 10.058 63.7689C13.4307 66.3601 17.5486 67.0001 21.082 67.0001H41.6372C43.0647 67.0148 44.5911 66.9243 46.1273 66.6392V67.0001H128.121L115.853 48.0001H135.351V52.7001C135.351 56.6807 136.755 60.8708 140.527 63.7689C143.9 66.3601 148.017 67.0001 151.551 67.0001H172.106C175.412 67.0343 179.249 66.5036 182.51 64.298C185.734 66.4488 189.517 67.0001 192.796 67.0001H213.396C214.802 67.0001 216.3 66.8988 217.807 66.6136V67.0001H279.195L257.635 33.6086L279.226 0.300049H217.807V0.69043C216.301 0.402801 214.803 0.300049 213.396 0.300049H192.796C189.284 0.300049 185.202 0.940613 181.845 3.50005H167.851V0.300049H135.351V3.50005H131.251V19.3001H115.836L128.152 0.300049H46.1273V3.50005ZM74.7328 8.30005V59.0001H90.6328V51.2001L96.0328 59.0001H113.433L97.0328 33.6001L113.433 8.30005H96.0328L90.6328 16.1V8.30005H74.7328ZM106.561 33.6086L107.944 35.7502V31.4755L106.561 33.6086ZM139.251 24.1H143.351V52.7001C143.351 56.9001 146.084 59.0001 151.551 59.0001H172.151C174.398 59.0275 176.183 58.6887 177.507 57.9839C179.403 56.9741 180.351 55.2128 180.351 52.7001V27.3001H163.951V46.4001H159.851V24.1H180.351V11.5H159.851V8.30005H143.351V11.5H139.251V24.1ZM184.596 52.7001C184.596 55.1845 185.553 56.9342 187.465 57.949C188.786 58.6497 190.563 59.0001 192.796 59.0001H213.396C215.147 59.0001 216.617 58.7847 217.807 58.354C220.333 57.4397 221.596 55.5551 221.596 52.7001V14.7001C221.596 11.7997 220.333 9.88516 217.807 8.95637C216.617 8.51882 215.147 8.30005 213.396 8.30005H192.796C191.029 8.30005 189.547 8.52307 188.351 8.9691C186.931 9.49853 185.914 10.3422 185.299 11.5C184.831 12.3837 184.596 13.4504 184.596 14.7001V52.7001ZM136.444 27.3001H115.944V40.0001H136.444V27.3001ZM225.807 8.30005V59.0001H241.707V51.2001L247.107 59.0001H264.507L248.107 33.6001L264.507 8.30005H247.107L241.707 16.1V8.30005H225.807ZM201.096 21H205.096V46.4001H201.096V21Z" fill="black"/>
</svg>
