<svg width="48" height="48" viewBox="0 0 48 48" fill="none" xmlns="http://www.w3.org/2000/svg">
<g clip-path="url(#clip0)">
<path d="M27.8944 1.75767C27.3376 1.49207 26.6816 1.56247 26.2016 1.94967L10.6368 14.4009H3.2C1.4368 14.4009 0 15.8377 0 17.6009V30.4009C0 32.1641 1.4368 33.6009 3.2 33.6009H10.6368L26.1984 46.0521C26.4896 46.2825 26.8448 46.4009 27.2 46.4009C27.4368 46.4009 27.6736 46.3497 27.8944 46.2441C28.448 45.9753 28.8 45.4153 28.8 44.8009V3.20087C28.8 2.58647 28.448 2.02647 27.8944 1.75767ZM9.6 30.4009H3.2V17.6009H9.6V30.4009ZM25.6 41.4697L12.8 31.2297V16.7721L25.6 6.53207V41.4697Z" fill="white"/>
<path d="M36.9022 12.6857C36.2718 12.0617 35.2606 12.0713 34.6398 12.6985C34.019 13.3289 34.0254 14.3401 34.6526 14.9609C37.0686 17.3513 38.3998 20.5609 38.3998 24.0009C38.3998 27.4409 37.0686 30.6505 34.6526 33.0409C34.0222 33.6617 34.0158 34.6729 34.6398 35.3033C34.9534 35.6201 35.3662 35.7769 35.7758 35.7769C36.1822 35.7769 36.5886 35.6233 36.9022 35.3129C39.9326 32.3209 41.5998 28.3049 41.5998 24.0009C41.5998 19.6969 39.9326 15.6809 36.9022 12.6857Z" fill="white"/>
<path d="M41.4146 8.17696C40.7874 7.55616 39.773 7.55936 39.1522 8.18656C38.5314 8.81376 38.5346 9.82816 39.1618 10.449C42.797 14.0554 44.8002 18.8682 44.8002 24.001C44.8002 29.1338 42.797 33.9466 39.1618 37.553C38.5346 38.1738 38.5314 39.1882 39.1522 39.8154C39.4658 40.1322 39.8754 40.289 40.2882 40.289C40.6946 40.289 41.101 40.1354 41.4146 39.825C45.661 35.6138 48.0002 29.9946 48.0002 24.001C48.0002 18.0074 45.661 12.3882 41.4146 8.17696Z" fill="white"/>
</g>
<defs>
<clipPath id="clip0">
<rect width="48" height="48" fill="white"/>
</clipPath>
</defs>
</svg>
