<svg width="50" height="46" viewBox="0 0 50 46" fill="none" xmlns="http://www.w3.org/2000/svg">
<path d="M35.0615 15.401L48.0798 29.5473" stroke="white" stroke-width="3" stroke-linecap="round"/>
<path d="M48.0796 15.7546L35.0614 29.901" stroke="white" stroke-width="3" stroke-linecap="round"/>
<path d="M27.8944 0.757668C27.3376 0.492068 26.6816 0.562468 26.2016 0.949668L10.6368 13.4009H3.2C1.4368 13.4009 0 14.8377 0 16.6009V29.4009C0 31.1641 1.4368 32.6009 3.2 32.6009H10.6368L26.1984 45.0521C26.4896 45.2825 26.8448 45.4009 27.2 45.4009C27.4368 45.4009 27.6736 45.3497 27.8944 45.2441C28.448 44.9753 28.8 44.4153 28.8 43.8009V2.20087C28.8 1.58647 28.448 1.02647 27.8944 0.757668ZM9.6 29.4009H3.2V16.6009H9.6V29.4009ZM25.6 40.4697L12.8 30.2297V15.7721L25.6 5.53207V40.4697Z" fill="white"/>
</svg>
