<svg width="264" height="96" viewBox="0 0 264 96" fill="none" xmlns="http://www.w3.org/2000/svg">
<path fill-rule="evenodd" clip-rule="evenodd" d="M0.467163 95.2V66.6H0.546204C0.500949 66.1414 0.475409 65.683 0.468171 65.227L0.467163 65.1635V12.7H53.4672V13.0904C54.9735 12.8027 56.4716 12.7 57.8781 12.7H78.4781C79.8846 12.7 81.3827 12.8027 82.889 13.0904V12.7H115.389V12.9042C116.806 12.7627 118.245 12.7 119.689 12.7C123.278 12.7 126.58 13.8165 129.467 15.7042L129.517 15.7371C132.846 13.3036 136.857 12.7 140.3 12.7H144.6V0H177.1V13.0904C178.606 12.8027 180.104 12.7 181.511 12.7H202.111C202.166 12.7 202.221 12.7002 202.276 12.7005L263.768 12.7L249.155 46.0063L263.748 79.4H202.295C202.234 79.4004 202.172 79.4 202.111 79.4H181.511C180.105 79.4 178.607 79.2987 177.1 79.0136V79.4H140.3C138.899 79.4 137.4 79.3033 135.889 79.0255V79.4H57.8781C56.4724 79.4 54.9742 79.2987 53.4672 79.0136V80.9C53.4672 84.8806 52.0633 89.0708 48.2911 91.9689C44.9184 94.5601 40.8006 95.2 37.2672 95.2H0.467163ZM45.4672 20.7H28.9672V58.8H24.9672V20.7H8.46716V65.1C8.47564 65.6339 8.52721 66.1339 8.62188 66.6C9.2719 69.8 11.9537 71.4 16.6672 71.4H28.9672V74.6H8.46716V87.2H37.2672C42.7338 87.2 45.4672 85.1 45.4672 80.9V20.7ZM49.6781 36.5H66.1781V33.4H70.1781V39.7H57.8781C56.1275 39.7213 54.6572 39.9512 53.4672 40.3896C51.4211 41.1433 50.2037 42.5135 49.8149 44.5C49.7237 44.9661 49.6781 45.4661 49.6781 46V65.1C49.6781 67.955 50.9411 69.8397 53.4672 70.7539C54.6572 71.1846 56.1275 71.4 57.8781 71.4H86.6781V27.1C86.6781 24.1997 85.4151 22.2851 82.889 21.3563C81.699 20.9188 80.2287 20.7 78.4781 20.7H57.8781C56.1275 20.7 54.6572 20.9188 53.4672 21.3563C50.9411 22.2851 49.6781 24.1997 49.6781 27.1V36.5ZM107.389 71.4V33.4H111.389V71.4H127.889V27.1C127.889 25.2333 126.956 23.6667 125.089 22.4C125 22.3415 124.91 22.2845 124.82 22.2291C123.17 21.2097 121.459 20.7 119.689 20.7C118.147 20.7 116.714 20.7849 115.389 20.9546C112.018 21.3867 109.351 22.3685 107.389 23.9V20.7H90.889V71.4H107.389ZM132.1 27.1V65.1C132.008 67.9872 133.271 69.882 135.889 70.7845C137.079 71.1948 138.55 71.4 140.3 71.4H169.1V8H152.6V20.7H140.3C137.966 20.7 136.131 21.0794 134.793 21.8383C132.959 22.8789 132.061 24.6328 132.1 27.1ZM177.1 70.7539C178.29 71.1846 179.76 71.4 181.511 71.4H202.111C203.614 71.4 204.91 71.2413 205.999 70.924C207.343 70.5326 208.373 69.8998 209.089 69.0256C209.903 68.0301 210.311 66.7216 210.311 65.1V55.6H193.811V58.8H189.811V52.4H210.311V27.1C210.311 25.4413 209.898 24.105 209.072 23.0912C208.357 22.2136 207.332 21.5775 205.998 21.1831C204.908 20.861 203.613 20.7 202.111 20.7H181.511C179.76 20.7 178.29 20.9188 177.1 21.3563C174.574 22.2851 173.311 24.1997 173.311 27.1V65.1C173.311 67.955 174.574 69.8397 177.1 70.7539ZM214.522 71.4H229.322L233.022 62.9L236.722 71.4H251.522L240.422 46L251.522 20.7H236.722L233.022 29.2L229.322 20.7H214.522L225.622 46L214.522 71.4ZM66.1781 58.8H70.1781V52.4H66.1781V58.8ZM148.6 33.4H152.6V58.8H148.6V33.4ZM189.811 39.7H193.811V33.4H189.811V39.7Z" fill="black"/>
</svg>
